<svg width="11" height="15" viewBox="0 0 11 15" fill="none" xmlns="http://www.w3.org/2000/svg">
<path d="M4.70312 13.9766C4.94922 14.3594 5.52344 14.3594 5.76953 13.9766C9.76172 8.23438 10.5 7.63281 10.5 5.5C10.5 2.60156 8.14844 0.25 5.25 0.25C2.32422 0.25 0 2.60156 0 5.5C0 7.63281 0.710938 8.23438 4.70312 13.9766ZM5.25 7.6875C4.01953 7.6875 3.0625 6.73047 3.0625 5.5C3.0625 4.29688 4.01953 3.3125 5.25 3.3125C6.45312 3.3125 7.4375 4.29688 7.4375 5.5C7.4375 6.73047 6.45312 7.6875 5.25 7.6875Z" fill="black"/>
</svg>
